<?xml version="1.0" encoding="UTF-8"?>
<svg width="234px" height="42px" viewBox="0 0 234 42" version="1.1" xmlns="http://www.w3.org/2000/svg" xmlns:xlink="http://www.w3.org/1999/xlink">
    <title>NFT-MAKER-Logo-Full-White</title>
    <g id="Page-1" stroke="none" stroke-width="1" fill="none" fill-rule="evenodd">
        <g id="Artboard" transform="translate(-579.000000, -5132.000000)" fill="#FAFAFA">
            <g id="NFT-MAKER-Logo-Full-White" transform="translate(579.000000, 5132.000000)">
                <path d="M6.53618187e-06,17.9515636 L6.53618187e-06,0 L35.0000065,0 L35.0000065,17.9515636 L29.3999898,17.9515636 L29.3999898,23.0322909 L19.5999083,17.9515636 L19.5999083,23.0322909 L9.79999236,17.9515636 L9.79999236,23.0322909 L6.53618187e-06,17.9515636 Z M34.9998726,38.2742182 L34.9998726,42 L0,42 L0,21 L0,17.9515636 L0,38.2742182 L9.79999236,38.2742182 L19.5999083,38.2742182 L29.3999898,38.2742182 L34.9998726,38.2742182 Z" id="Shape"></path>
                <path d="M207.926953,12.2117309 L211.88007,14.2710588 L211.88007,29.6189357 L207.926953,29.6189357 L207.926953,12.2117309 Z M224.403565,11 C229.813226,11 234,15.0132991 234,20.4745405 C234,25.9357818 229.813226,30 224.403565,30 C219.02057,30 214.860464,25.9357818 214.860464,20.4745405 C214.860464,15.0132991 219.02057,11 224.403565,11 Z M224.403565,14.4545153 C220.997763,14.4545153 218.91644,17.1215828 218.91644,20.4745405 C218.91644,23.8274981 220.997763,26.5454337 224.403565,26.5454337 C227.837303,26.5454337 229.917356,23.8274981 229.917356,20.4745405 C229.917356,17.1215828 227.837303,14.4545153 224.403565,14.4545153 Z M61.0712675,29.6189357 L57.1965019,29.6189357 L48.6407279,16.8929952 L48.6407279,29.7030784 L45,29.7030784 L45,11.381026 L49.2648708,11.381026 L57.4305396,23.4719316 L57.4305396,11.381026 L61.0712675,11.381026 L61.0712675,29.6189357 Z M68.3618663,22.6590625 L68.3618663,29.6189357 L64.4090035,29.6189357 L64.4090035,11.381026 L76.4754703,11.381026 L76.4754703,14.7086007 L68.3618663,14.7086007 L68.3618663,19.3316026 L75.2271844,19.3316026 L75.2271844,22.6590625 L68.3618663,22.6590625 Z M87.7547424,29.6189357 L87.7547424,14.8609499 L93.6578772,14.8609499 L93.6578772,11.381026 L77.9246501,11.381026 L77.9246501,14.8609499 L83.827912,14.8609499 L83.827912,29.6189357 L87.7547424,29.6189357 Z M99.039221,21.058822 L99.039221,24.2085624 L91.1075899,24.2085624 L91.1075899,21.058822 L99.039221,21.058822 Z M110.74098,29.6189357 L114.22564,29.6189357 L119.140687,17.4010384 L119.140687,29.6189357 L122.755382,29.6189357 L122.755382,11.381026 L118.022436,11.381026 L112.613409,24.8943251 L107.178222,11.381026 L102.445276,11.381026 L102.445276,29.6189357 L105.825934,29.6189357 L105.825934,17.5026471 L110.74098,29.6189357 Z M144.247867,29.6189357 L140.009029,29.6189357 L138.604549,25.7071943 L131.34976,25.7071943 L129.918613,29.6189357 L125.940225,29.6189357 L132.96123,11.381026 L137.2788,11.381026 L144.247867,29.6189357 Z M135.015886,15.5975807 L132.415184,22.6336922 L137.539125,22.6336922 L135.015886,15.5975807 Z M157.650114,29.6189357 L162.695322,29.6189357 L155.101478,20.118974 L162.487063,11.381026 L157.883771,11.381026 L151.175028,19.3823432 L151.175028,11.381026 L147.221911,11.381026 L147.221911,29.6189357 L151.175028,29.6189357 L151.175028,21.2620393 L157.650114,29.6189357 Z M169.665659,26.265978 L178.272863,26.265978 L178.272863,29.6189357 L165.712542,29.6189357 L165.712542,11.381026 L178.091271,11.381026 L178.091271,14.733971 L169.665659,14.733971 L169.665659,18.5694741 L177.336966,18.5694741 L177.336966,21.8970614 L169.665659,21.8970614 L169.665659,26.265978 Z M192.048453,29.6189357 L196.860004,29.6189357 L191.97099,22.5828242 C194.440895,21.7954528 196.183161,19.941127 196.183161,17.2994298 C196.183161,13.489297 193.400868,11.381026 188.745511,11.381026 L181.411991,11.381026 L181.411991,29.6189357 L185.365107,29.6189357 L185.365107,23.1671057 L187.835012,23.1671057 L192.048453,29.6189357 Z M188.537252,14.5814943 C191.008426,14.5814943 192.256712,15.5975807 192.256712,17.2994298 C192.256712,18.9759086 191.008426,19.991995 188.537252,19.991995 L185.365107,19.991995 L185.365107,14.5814943 L188.537252,14.5814943 Z M202.344589,25.0918054 C203.775736,25.0918054 204.763698,26.0823941 204.763698,27.504915 C204.763698,28.9019382 203.775736,29.8925269 202.344589,29.8925269 C200.914711,29.8925269 199.900082,28.9019382 199.900082,27.504915 C199.900082,26.0823941 200.914711,25.0918054 202.344589,25.0918054 Z" id="Shape"></path>
            </g>
        </g>
    </g>
</svg>